<svg width="22" height="20" viewBox="0 0 22 20" fill="none" xmlns="http://www.w3.org/2000/svg">
<g id="Group 14">
<path id="Shape" fill-rule="evenodd" clip-rule="evenodd" d="M4.04193 3.64139H21.1034C21.6865 3.64139 22.114 4.19014 21.9729 4.75489L20.152 12.0381C20.0569 12.4181 19.7261 12.6924 19.3351 12.7153L5.01332 13.557C5.26937 14.1554 5.86258 14.5661 6.54332 14.5661H16.5515C18.0497 14.5661 19.2685 15.7849 19.2685 17.2831C19.2685 18.7812 18.0497 20 16.5515 20C14.6743 20 13.3546 18.1275 13.9968 16.3584H9.092C9.73505 18.1298 8.41245 20 6.53726 20C4.27796 20 3.00891 17.3851 4.39783 15.6114C3.62748 15.0012 3.18029 14.1031 3.10715 13.2755C1.97229 0.631508 2.02178 1.18296 2.128 2.36648L2.12801 2.36663L2.12809 2.36744C2.19949 3.1631 2.29639 4.24273 2.07644 1.79232H1.07496C0.580026 1.79232 0.178802 1.39109 0.178802 0.896159C0.178802 0.401223 0.580026 0 1.07496 0H2.89574C3.35961 0 3.74684 0.354025 3.78832 0.816059L4.04193 3.64139ZM5.61268 17.2831C5.61268 17.7929 6.02748 18.2077 6.53726 18.2077C7.04709 18.2077 7.46188 17.7929 7.46188 17.2831C7.46188 16.7732 7.04709 16.3584 6.53726 16.3584C6.02748 16.3584 5.61268 16.7732 5.61268 17.2831ZM16.5515 18.2077C16.0417 18.2077 15.6269 17.7929 15.6269 17.2831C15.6269 16.7732 16.0417 16.3584 16.5515 16.3584C17.0613 16.3584 17.4761 16.7732 17.4761 17.2831C17.4761 17.7929 17.0613 18.2077 16.5515 18.2077ZM4.77209 11.7758L18.5728 10.9648L19.9557 5.43367H4.20281L4.77209 11.7758Z" fill="#69707D"/>
</g>
</svg>
